<svg width="72" height="73" viewBox="0 0 72 73" fill="none" xmlns="http://www.w3.org/2000/svg">
<path opacity="0.4" d="M53.8508 23.6308L53.4308 23.3908L49.2608 20.9908L40.6508 16.0108C38.0108 14.4808 33.9908 14.4808 31.3508 16.0108L22.7408 20.9908L18.5708 23.4208L18.0308 23.7208C12.6608 27.3208 12.3008 27.9808 12.3008 33.7708V47.6008C12.3008 53.3908 12.6608 54.0508 18.1508 57.7408L31.3508 65.3608C32.6708 66.1408 34.3208 66.5008 36.0008 66.5008C37.6508 66.5008 39.3308 66.1408 40.6508 65.3608L53.9708 57.6508C59.3408 54.0508 59.7008 53.3908 59.7008 47.6008V33.7708C59.7008 27.9808 59.3408 27.3208 53.8508 23.6308Z" fill="#FF6200"/>
<path d="M18.5703 23.42L22.7403 20.99L30.9603 16.25L31.3503 16.01C33.9903 14.48 38.0103 14.48 40.6503 16.01L41.0403 16.25L49.2603 20.99L53.4303 23.39V16.97C53.4303 10.22 49.7103 6.5 42.9603 6.5H29.0103C22.2603 6.5 18.5703 10.22 18.5703 16.97V23.42Z" fill="#FF6200"/>
<path d="M44.5192 40.5198L42.6592 42.7998C42.3592 43.1298 42.1492 43.7898 42.1792 44.2398L42.3592 47.1798C42.4792 48.9798 41.1892 49.9098 39.5092 49.2498L36.7792 48.1698C36.3592 48.0198 35.6392 48.0198 35.2192 48.1698L32.4892 49.2498C30.8092 49.9098 29.5192 48.9798 29.6392 47.1798L29.8192 44.2398C29.8492 43.7898 29.6392 43.1298 29.3392 42.7998L27.4792 40.5198C26.3092 39.1398 26.8192 37.6098 28.5592 37.1598L31.4092 36.4398C31.8592 36.3198 32.3992 35.8998 32.6392 35.5098L34.2292 33.0498C35.2192 31.5198 36.7792 31.5198 37.7692 33.0498L39.3592 35.5098C39.5992 35.8998 40.1392 36.3198 40.5892 36.4398L43.4392 37.1598C45.1792 37.6098 45.6892 39.1398 44.5192 40.5198Z" fill="#FF6200"/>
</svg>
