<svg width="72" height="73" viewBox="0 0 72 73" fill="none" xmlns="http://www.w3.org/2000/svg">
<path opacity="0.4" d="M61.5 21.5V45.5H19.05C14.34 45.5 10.5 49.34 10.5 54.05V21.5C10.5 9.5 13.5 6.5 25.5 6.5H46.5C58.5 6.5 61.5 9.5 61.5 21.5Z" fill="#FF6200"/>
<path d="M61.5 45.5V56C61.5 61.79 56.79 66.5 51 66.5H21C15.21 66.5 10.5 61.79 10.5 56V54.05C10.5 49.34 14.34 45.5 19.05 45.5H61.5Z" fill="#FF6200"/>
<path d="M48 23.75H24C22.77 23.75 21.75 22.73 21.75 21.5C21.75 20.27 22.77 19.25 24 19.25H48C49.23 19.25 50.25 20.27 50.25 21.5C50.25 22.73 49.23 23.75 48 23.75Z" fill="#FF6200"/>
<path d="M39 34.25H24C22.77 34.25 21.75 33.23 21.75 32C21.75 30.77 22.77 29.75 24 29.75H39C40.23 29.75 41.25 30.77 41.25 32C41.25 33.23 40.23 34.25 39 34.25Z" fill="#FF6200"/>
</svg>
