<svg width="1280" height="1425" viewBox="0 0 1280 1425" fill="none" xmlns="http://www.w3.org/2000/svg">
<g filter="url(#filter0_d_226_1983)">
<rect width="1263.6" height="1408.8" rx="62.4" fill="white" shape-rendering="crispEdges"/>
<rect x="0.6" y="0.6" width="1262.4" height="1407.6" rx="61.8" stroke="black" stroke-width="1.2" shape-rendering="crispEdges"/>
<path d="M800.59 737.33L803.753 736.426V735.747L802.172 734.165L800.59 730.999L799.009 729.416H794.266L791.894 726.251L789.522 722.294L785.569 719.92L780.826 717.545L774.501 713.588L770.548 710.423L765.014 708.049L759.48 706.466L756.318 703.3L749.993 700.926L748.412 704.883V717.545L745.249 722.294L736.553 719.92L733.391 717.545H723.113C721.848 717.545 721.005 719.128 720.741 719.92H715.998L711.254 715.963L715.998 712.006V704.883H709.673L697.814 706.466L689.909 710.423L682.793 708.049L675.678 704.883L674.097 705.335L670.144 706.466L663.819 713.588L661.448 715.963L657.495 717.545V729.416L655.123 734.165L651.96 738.913L650.379 743.661C649.589 745.244 647.059 749.518 643.264 753.95C640.102 755.216 641.946 756.06 643.264 756.324H623.499L617.965 763.446H614.803V797.476H626.662L629.033 805.39L623.499 810.139L614.803 805.39L608.478 801.433L599.782 797.476L594.248 801.433V805.39L596.62 810.139L602.154 817.261V821.218L605.316 829.132V848.126L602.154 852.874L596.62 859.205L591.876 865.536L584.761 869.493L581.598 875.033V886.113L589.504 885.321V882.947L596.62 879.781H600.572L606.107 875.824L611.641 877.407V861.579L613.222 858.414H616.384V863.162H619.546V866.328L631.405 865.536V863.162H641.683V848.917H648.008V838.629L650.379 834.672H659.076L661.448 838.629L664.61 841.794L667.772 845.751L674.887 846.543H687.537V838.629H693.071L697.814 833.88L706.511 834.672L710.464 829.132L715.207 824.384L716.788 818.053L718.37 815.678V811.721L721.532 807.764L724.694 804.599H731.019L736.553 807.764H739.715L746.04 808.556L750.784 806.973H755.527V804.599L753.946 797.476L755.527 798.268L757.108 800.642L760.271 801.433L761.852 803.807L764.224 801.433L767.386 795.102L770.548 791.145L778.454 787.98V781.648L782.407 780.066L784.779 773.734L782.407 766.612L780.035 761.863V751.575L784.779 747.618V744.453L787.941 741.287L794.266 738.122L800.59 737.33Z" fill="#D9D9D9"/>
<path d="M259.04 788.771L255.087 798.268H261.412L262.202 791.936L266.946 790.354L272.48 794.311H281.176V781.648H283.548V775.317L288.292 777.691H294.616L298.569 775.317V759.489L288.292 755.532L289.873 753.95H294.616L302.522 747.618L305.684 743.661L310.428 740.496H302.522L294.616 736.539L296.197 729.416L298.569 727.833L305.684 724.668H309.637V701.717L312.009 698.552L316.753 696.178H319.915L322.287 690.638L316.753 681.141H326.24L332.564 676.393V671.644H329.402L326.24 668.479V665.313L329.402 662.148L338.098 660.565L340.47 655.816V636.823L334.936 632.866V617.829L338.098 606.75L342.051 605.167L347.585 600.419L350.748 603.584L349.167 606.75L355.491 610.707H365.769L371.303 613.872L376.837 620.204L371.303 621.786V639.197L362.606 640.78V647.111H377.628V640.78L381.581 639.197L383.162 635.24V630.492H398.973L403.717 635.24L410.832 636.032V623.369H413.994L416.366 617.829L418.738 613.872L410.832 613.081L409.251 606.75L410.832 602.002V598.045L416.366 595.67H431.387V583.008H427.434L422.691 586.174H406.879L402.136 583.008L398.973 579.842L397.392 573.511L398.973 566.389L402.136 564.806L406.879 560.058L410.832 556.892L413.994 554.518L418.738 550.561L422.691 548.978L427.434 544.23H433.759L440.084 539.481H444.037L447.99 534.733H450.361L458.267 528.402V522.862L450.361 520.488H446.408L439.293 525.236L432.178 529.193L428.225 526.819L432.178 520.488L437.712 515.739L434.55 510.991V505.451L428.225 499.12V491.998L423.481 486.458L416.366 491.998L411.623 486.458V475.378L408.46 469.047L406.879 469.838L404.507 475.378L401.345 477.752L393.439 469.838V475.378L387.115 477.752L384.743 486.458L379.209 481.709V469.838L376.046 465.881L372.094 460.342L368.141 454.011L363.397 447.679V440.557L360.235 436.6L357.863 429.477V424.729H347.585L338.889 420.772L334.145 416.815V420.772H328.611L325.449 416.815V410.484L323.077 401.778L318.334 395.447H308.847L301.731 390.699L300.941 389.907H293.826L286.71 392.282L277.223 401.778V406.527L274.061 415.232L269.317 422.355L266.155 431.06L262.202 435.808L255.878 438.974L248.762 444.514L242.438 448.471L239.275 455.593L234.532 466.673H232.16L228.207 473.795L225.045 483.292H200.537L195.003 488.832H186.306L183.934 483.292L177.61 476.17L172.076 473.795L167.332 479.335L161.798 483.292L158.144 491.206L156.264 495.954L149.149 501.494L144.405 510.2L138.871 514.948V526.819L141.243 530.776L147.567 534.733H156.264L161.798 537.107V564.806L167.332 571.929L177.61 574.303H181.563V587.756L191.05 598.836V602.793L195.003 610.707V621.786L191.05 628.909L186.306 631.283H177.61V624.952H175.238L172.076 628.909H167.332L160.217 631.283L156.264 634.449H149.149L144.405 633.657L140.273 628.909H111.678L109.619 633.657V641.571L107.009 648.163L99.3418 651.068V657.399L102.504 666.105L107.248 670.062L113.572 676.393L119.106 682.724L126.222 685.89H130.965L138.871 690.638H144.405L152.311 685.89L160.217 682.724H167.332L169.704 680.35L175.238 678.767H177.61L175.238 682.724L172.076 685.89L167.332 695.386L160.217 700.135L156.264 702.509L147.567 703.3H141.243L136.499 706.466H130.965L126.222 702.509L121.478 706.466V713.588L123.059 717.545L128.593 724.668L130.965 727.833L136.499 730.208L138.871 735.747L144.405 738.517L152.311 747.618L156.264 750.784L161.798 753.95L167.332 759.489L172.076 761.863L177.61 766.612L181.563 769.777L186.306 772.152H195.003L204.49 769.777L210.024 766.612L217.139 761.863L225.045 759.489L232.16 755.532L238.485 750.784L241.647 743.661V735.747L238.485 730.208V724.668H244.019V715.171H251.134L248.762 717.545V724.668H255.087L253.506 727.833V735.747L262.202 738.517L259.04 740.496L255.087 743.661V755.532L259.04 759.489L261.412 766.612L265.365 772.152L261.412 777.691L259.04 788.771Z" fill="#FF6200"/>
<path d="M702.558 838.629L706.511 834.672L697.814 833.88L693.071 838.629H687.537V846.543H674.887L667.772 845.751L664.61 841.794L661.448 838.629L659.076 834.672H650.379L648.008 838.629V848.917H641.683V863.162H631.405V865.536L619.546 866.328V863.162H616.384V858.414H613.222L611.641 861.579V877.407L606.107 875.824L600.572 879.781H596.62L589.504 882.947V885.321L581.598 886.113L577.645 885.321H564.996L562.624 882.947L560.253 877.407L557.881 872.659H553.928L550.766 866.328V861.579L549.184 859.997L544.441 856.831L540.488 855.248L536.93 853.665L536.535 853.49L533.373 852.083H528.629L524.676 848.917V842.586L523.095 838.629V827.549L524.676 826.758L523.095 822.01L520.723 818.844L519.142 816.47H515.189V820.427H509.655L505.702 818.844L500.168 817.261L499.378 814.887H493.053L491.472 816.47H486.728L484.357 811.721L481.194 807.764H471.707L465.382 806.182V814.887L463.801 818.844L461.43 823.592V827.549L457.477 829.924L454.314 829.132L449.571 827.549L447.99 829.132L443.246 838.629L445.618 841.794L449.571 846.543V848.917L445.618 852.083L443.246 855.248L440.084 858.414L436.131 859.997L435.34 865.536L436.131 868.702V882.947L435.34 885.321L433.759 892.444L438.503 896.401L436.131 898.775V901.149L430.597 904.315L429.806 908.272L430.597 912.229V925.682L429.806 934.388H426.644V939.928H429.806L435.34 942.302V949.424L433.759 954.964L429.806 956.547H421.11L419.529 958.13V970.001L416.366 974.749V980.289L419.529 984.246L421.11 989.785L416.366 992.16H406.879L407.67 996.908L410.042 1000.07L407.67 1003.24L406.089 1004.82V1009.57L407.67 1011.94L410.042 1016.69H411.623V1021.44L411.764 1026.56L413.204 1022.23L419.529 1020.65H425.063L429.806 1022.23V1031.73H426.644H421.11L420.204 1029.71L419.529 1026.98L416.366 1026.56L413.204 1028.84L412.413 1031.73L414.785 1034.89V1039.64L416.366 1042.81H421.11L425.063 1038.06L426.644 1036.48L430.597 1039.64L433.759 1042.02L443.246 1037.27L447.199 1036.48L450.361 1037.27H453.524L455.105 1042.02L456.686 1045.18L459.848 1047.56H465.382L467.754 1052.31V1058.64H474.869V1061.01L469.335 1067.34V1073.67L463.801 1075.26L459.848 1079.21L463.801 1082.38H467.754L471.707 1081.59L474.869 1077.63L477.241 1071.3L481.985 1068.92H491.472L497.796 1067.34L501.749 1061.01H519.142L523.095 1056.26L526.257 1052.31L533.373 1053.89L538.116 1049.93V1045.18L533.373 1034.1L531.792 1025.4L533.373 1021.44V1015.11L529.42 1006.4V986.62L533.373 980.289V977.914L538.116 970.792L542.069 965.252L547.603 962.087H554.719L557.09 965.252H559.462L562.624 963.669L568.158 958.921V954.964L570.53 951.007V942.302H594.248L600.572 939.928L606.107 937.553L611.641 934.388L613.222 932.014V912.229L619.546 908.272L631.405 904.315L637.73 901.149L641.683 898.775L648.008 892.444L650.379 887.695L654.332 885.321L659.076 879.781L661.448 875.824L667.772 871.867L671.725 867.911H674.887L678.05 864.745L683.584 861.579L693.071 852.083L697.814 845.751L702.558 838.629Z" fill="#FF6200"/>
<path d="M335.727 1073.67L338.098 1079.21L344.423 1083.17L349.957 1086.34L353.119 1091.88L357.863 1095.83L363.397 1102.16L369.722 1105.33L372.884 1109.29L379.209 1111.66L384.743 1114.83H389.486L392.649 1117.2H398.973L404.507 1122.74H409.251L412.413 1117.2L417.947 1114.83H430.597L433.759 1110.87H440.874L441.665 1106.91V1102.16L433.759 1099.79V1095.83L436.131 1091.88V1083.17H440.874L443.246 1077.63L445.618 1075.26H450.361L455.105 1076.05L459.848 1079.21L463.801 1075.26L469.335 1073.67V1067.34L474.869 1061.01V1058.64H467.754V1052.31L465.382 1047.56H459.848L456.686 1045.18L455.105 1042.02L453.524 1037.27H450.361L447.199 1036.48L443.246 1037.27L433.759 1042.02L430.597 1039.64L426.644 1036.48L425.063 1038.06L421.11 1042.81H416.366L414.785 1039.64V1034.89L412.413 1031.73L413.204 1028.84L416.366 1026.56L419.529 1026.98L420.204 1029.71L421.11 1031.73H426.644H429.806V1022.23L425.063 1020.65H419.529L413.204 1022.23L411.764 1026.56L411.623 1021.44V1016.69H410.042L407.67 1011.94L406.089 1009.57V1004.82L407.67 1003.24L410.042 1000.07L407.67 996.908L406.879 992.16H416.366L421.11 989.785L419.529 984.246L416.366 980.289V974.749L419.529 970.001V958.13L421.11 956.547H429.806L433.759 954.964L435.34 949.424V942.302L429.806 939.928H426.644V934.388H429.806L430.597 925.682V912.229L429.806 908.272L430.597 904.315L436.131 901.149V898.775L438.503 896.401L433.759 892.444L435.34 885.321L436.131 882.947V868.702L435.34 865.536H430.597L429.806 863.162L428.225 861.579L425.063 863.162L421.11 868.702L416.366 871.867H411.623L410.042 875.824V882.947H406.089L403.717 889.278H393.439L391.068 896.401V902.732H387.115L379.999 901.149L376.837 902.732L372.094 901.149L366.559 898.775H364.188L361.816 904.315L364.188 908.272V916.977H350.748L348.376 921.725H344.423L341.261 919.351L336.517 921.725L334.936 927.265L328.611 928.848V934.388L323.868 932.805H319.124L315.171 934.388V939.928L319.124 945.467H323.868V954.964L320.706 958.13L314.381 968.418L315.171 972.375V996.117L314.381 996.908L311.218 997.699L307.947 1001.62L308.847 1003.24L312.009 1004.82L315.171 1008.78L316.753 1011.15L319.124 1014.32V1021.44L323.868 1023.02V1034.89L329.402 1039.64V1042.02L331.774 1047.56V1053.89L333.355 1061.01V1073.67H335.727Z" fill="#D9D9D9"/>
<path d="M196.584 615.455L203.699 613.081L210.814 615.455H231.369L239.275 613.081L243.228 618.621L249.553 623.369H271.689L274.061 625.743V632.075L271.689 638.406L276.433 642.363H281.967V648.694L285.129 653.442L286.71 656.608L295.407 662.148L302.522 667.687L308.056 670.853L312.8 677.184L315.962 678.767V680.35L316.753 681.141M316.753 681.141H326.24L332.564 676.393V671.644H329.402L326.24 668.479V665.313L329.402 662.148L338.098 660.565L340.47 655.816V636.823L334.936 632.866V617.829L338.098 606.75L342.051 605.167L347.585 600.419L350.748 603.584L349.167 606.75L355.491 610.707H365.769L371.303 613.872L376.837 620.204L371.303 621.786V639.197L362.606 640.78V647.111H377.628V640.78L381.581 639.197L383.162 635.24V630.492H398.973L403.717 635.24L410.832 636.032V623.369H413.994L416.366 617.829L418.738 613.872L410.832 613.081L409.251 606.75L410.832 602.002V598.045L416.366 595.67H431.387V583.008H427.434L422.691 586.174H406.879L402.136 583.008L398.973 579.842L397.392 573.511L398.973 566.389L402.136 564.806L406.879 560.058L410.832 556.892L413.994 554.518L418.738 550.561L422.691 548.978L427.434 544.23H433.759L440.084 539.481H444.037L447.99 534.733H450.361L458.267 528.402V522.862M316.753 681.141L322.287 690.638L319.915 696.178H316.753L312.009 698.552L309.637 701.717V724.668M300.941 389.907H293.826L286.71 392.282L277.223 401.778V406.527L274.061 415.232L269.317 422.355L266.155 431.06L262.202 435.808L255.878 438.974L248.762 444.514L242.438 448.471L239.275 455.593L234.532 466.673H232.16L228.207 473.795L225.045 483.292H200.537L195.003 488.832H186.306L183.934 483.292L177.61 476.17L172.076 473.795L167.332 479.335L161.798 483.292L158.144 491.206L156.264 495.954L149.149 501.494L144.405 510.2L138.871 514.948V526.819L141.243 530.776L147.567 534.733H156.264L161.798 537.107V564.806L167.332 571.929L177.61 574.303H181.563V587.756L191.05 598.836V602.793L195.003 610.707V621.786L191.05 628.909L186.306 631.283H177.61V624.952H175.238L172.076 628.909H167.332L160.217 631.283L156.264 634.449H149.149L144.405 633.657L140.273 628.909H111.678L109.619 633.657V641.571L107.009 648.163L99.3418 651.068V657.399L102.504 666.105L107.248 670.062L113.572 676.393L119.106 682.724L126.222 685.89H130.965L138.871 690.638H144.405L152.311 685.89L160.217 682.724H167.332L169.704 680.35L175.238 678.767H177.61L175.238 682.724L172.076 685.89L167.332 695.386L160.217 700.135L156.264 702.509L147.567 703.3H141.243L136.499 706.466H130.965L126.222 702.509L121.478 706.466V713.588L123.059 717.545L128.593 724.668L130.965 727.833L136.499 730.208L138.871 735.747L144.405 738.517L152.311 747.618L156.264 750.784L161.798 753.95L167.332 759.489L172.076 761.863L177.61 766.612L181.563 769.777L186.306 772.152H195.003L204.49 769.777L210.024 766.612L217.139 761.863L225.045 759.489L232.16 755.532L238.485 750.784L241.647 743.661V735.747L238.485 730.208V724.668H244.019V715.171H251.134L248.762 717.545V724.668H255.087L253.506 727.833V735.747L262.202 738.517M300.941 389.907V375.662L309.637 364.583L322.287 353.503L327.03 348.755V332.136L322.287 321.056L327.03 315.516L332.564 308.394L340.47 302.854L349.957 298.897L354.701 294.149M300.941 389.907L301.731 390.699L308.847 395.447H318.334M354.701 294.149L349.957 289.4M354.701 294.149L353.91 293.357M349.957 289.4H335.727L330.193 287.026V275.946H322.287V271.989L317.543 264.867L309.637 258.536L304.894 252.205L309.637 248.248V236.377H304.894V227.671L309.637 224.506L312.8 218.966H300.941V211.843H304.894V204.721H296.988V194.433H304.894V189.618H309.637L312.8 182.696H322.287L323.077 175.775L318.334 169.719H312.8V164.527L301.731 161.067L296.988 152.415H286.71L277.223 145.494L280.045 134.246L286.71 128.19H291.293L296.988 118.673V113.482H318.334V107.426H340.47L347.585 104.83H353.91L360.235 107.426H363.397L372.094 104.83H374.465L376.046 113.482L382.371 118.673L388.696 128.19H395.02L401.345 134.246L410.832 140.302L416.366 145.494L419.529 152.415L425.063 155.876L434.55 158.471L438.503 164.527V169.719H456.686L465.382 164.527L478.032 155.876L484.357 149.819L489.1 145.494H500.168L504.121 152.415L510.446 158.471L516.77 161.067H523.886V164.527L530.21 169.719V175.775L527.839 186.157L527.048 194.433L523.886 197.598L523.095 200L514.509 200.865V204.721L512.779 206.921H507.283V215.009L504.121 224.506H487.519L489.1 231.146V236.377L487.519 241.916V248.248L496.215 252.205H504.121V279.112L500.168 287.026H496.215L491.472 289.4H481.194V279.112L474.869 287.026L471.707 283.86L464.241 279.376M349.957 289.4L353.91 293.357M484.357 337.675L482.775 335.301L478.822 332.927L480.404 329.761L482.775 323.43L480.404 321.056L478.032 317.89L478.822 314.725L480.404 309.976L478.822 306.811L473.288 301.271L471.707 296.523V289.4L463.801 279.112L464.241 279.376M484.357 337.675H486.728L493.053 331.344L494.634 333.718L497.006 340.05L500.959 344.007L505.702 349.546L510.446 353.503H523.886L527.048 355.086L530.21 360.626L533.373 363L537.326 369.331L549.975 374.08L555.509 378.037L559.462 381.993L560.253 385.159L555.509 389.907L550.766 393.073L548.394 396.239L543.65 400.987L541.279 404.944V410.484L539.697 415.232L537.326 419.189V426.312L535.745 430.269L530.21 435.808V444.514M484.357 337.675L485.938 339.258M530.21 444.514L537.326 449.262L543.65 451.636H549.975L555.509 454.802L561.834 461.924L570.53 466.673L576.855 472.213L580.808 475.378L586.342 478.544L591.085 480.127L597.41 482.501H606.897L611.641 489.623H625.871L628.243 493.58V499.911H644.845L648.008 505.451L650.379 502.286V499.911H658.285L661.448 502.286H667.377M530.21 444.514L527.839 445.305L523.095 442.931H516.77L510.446 440.557H507.283L502.54 438.183L497.006 432.643L492.262 431.851L485.147 427.103L482.775 423.146L485.147 417.606L481.194 415.232L476.451 411.275L472.498 408.11L469.335 404.153L466.964 396.239L459.848 394.656V404.153L456.686 408.11H448.78L444.827 404.153L446.408 394.656V392.282L448.78 386.742V382.785L444.827 379.619L440.084 377.245M824.308 536.316L819.564 541.855H816.402V543.438H800.59L797.428 545.021L791.103 543.438L786.36 541.855L783.988 536.316H780.035L776.873 541.855H772.92L765.805 536.316H761.852L754.736 533.942L747.621 532.359L746.04 533.942L742.878 536.316L736.553 533.942V527.61L732.6 524.445L729.438 527.61L724.694 529.193H717.579V527.61L711.254 524.445L709.673 521.279H705.72L697.814 517.322L695.443 511.782V506.243H692.28L684.374 502.286L681.212 499.911H677.259L673.306 502.286H667.377M824.308 536.316L825.917 529.193V521.279L821.486 516.531L819.564 509.408M824.308 536.316L827.194 534.733L829.051 537.744L831.423 541.855L829.051 546.604M819.564 509.408L821.486 505.451V495.954L824.308 491.206V488.041L825.917 480.918H829.842L833.795 478.544L840.12 476.17H851.188V485.666L854.35 488.041L852.769 494.372V506.243L851.188 509.408M819.564 509.408L825.917 514.334H836.189L840.12 511.633L848.816 510.732L851.188 509.408M851.188 509.408L852.769 516.531L857.512 521.279V524.445H874.115L879.649 529.193M879.649 529.193H897.042M879.649 529.193H887.555M897.042 529.193L902.576 524.445H908.11L914.435 527.61H954.754L961.079 524.445H969.776M897.042 529.193H887.555M969.776 524.445V499.911H957.917L954.754 494.372L957.917 485.666L963.451 488.041H969.776L974.519 485.666H979.263L989.54 484.084L994.284 478.544V472.213H998.237L1004.56 465.09V461.924H1010.1V457.967L1018 453.219L1021.16 450.845H1027.49L1035.39 447.679L1036.98 446.097L1044.09 444.514L1048.83 439.765L1055.95 435.017V425.52L1061.48 423.938L1070.97 425.52L1074.13 429.477H1079.67L1084.41 431.851L1090.73 433.434L1094.69 429.477L1100.22 427.894L1104.17 423.938L1107.34 422.355L1108.92 420.772H1121.57L1123.15 422.355H1126.31L1127.89 423.938L1126.31 429.477L1127.89 431.851L1133.43 436.6L1135.01 439.765L1136.59 444.514V447.679L1134.22 452.428L1133.43 454.802L1139.75 452.428L1142.12 453.219L1145.29 456.385L1148.45 457.967L1149.24 462.716H1154.77L1157.93 461.924L1162.68 465.09L1164.26 469.047V480.127L1158.73 484.084L1155.56 485.666L1150.82 489.623L1148.45 493.58L1149.24 499.911L1150.82 503.868L1155.56 507.825V515.739H1152.4L1148.45 511.782L1145.29 510.2L1142.12 507.825L1138.17 506.243L1131.05 507.825H1124.73L1117.61 510.2L1104.97 522.862L1098.64 528.402L1090.73 531.567L1084.41 535.524L1082.83 540.273L1080.46 544.23L1082.04 548.978L1084.41 555.309L1086.78 559.266L1082.83 564.806L1078.88 567.18V572.72L1075.71 574.303L1072.55 577.468L1070.18 581.425L1067.81 582.217L1065.44 583.997M969.776 524.445L976.891 520.488H985.587L990.331 517.322H999.027L1006.14 520.488H1028.28L1029.86 518.905L1036.18 517.322L1038.56 510.991L1041.72 507.825L1043.3 502.286L1052 495.954H1058.32L1063.06 489.623H1068.6L1070.18 487.249L1079.67 485.666L1083.62 483.292H1090.73L1096.27 481.709L1098.64 476.961H1109.71L1113.66 479.335L1112.08 483.292L1109.71 489.623V495.954L1112.08 502.286V507.825H1105.76L1098.64 509.408L1096.27 510.991L1093.9 513.365L1090.73 514.948L1087.57 520.488M1021.16 643.154H1025.12L1031.44 643.945H1036.98L1040.14 645.528H1048.83L1051.21 639.988V635.24L1054.37 629.7L1055.95 622.578L1058.32 618.621L1060.69 615.455L1063.06 613.081L1064.65 609.915L1067.81 605.959L1069.39 599.627V598.045L1065.44 594.879L1063.06 592.505L1064.65 584.591L1065.44 583.997M1021.16 643.154L1019.58 645.528V658.191L1021.16 665.313V677.976L1019.58 680.35L1014.84 681.932L1011.68 685.89L1010.1 689.055V700.926L1011.68 705.674V712.797L1004.56 719.128L1002.98 723.085L999.027 720.711L995.865 719.128H992.702L991.912 721.502H989.54V712.797L988.749 704.883H987.959V696.178L985.587 691.429L983.215 685.89L981.634 680.35V668.479L980.053 666.105L977.681 658.191L976.1 655.816M1021.16 643.154L1018 641.571V638.406H1006.14V626.535M976.1 655.816H970.566M976.1 655.816H975.31M970.566 655.816L967.404 658.191L965.032 662.148V668.479H961.87L961.079 674.81V681.932H951.592L950.011 679.558L946.058 674.81L944.477 674.018L943.686 668.479L938.943 663.73L938.152 657.399V648.694L940.524 645.528L946.058 641.571L949.22 639.988L953.964 636.823L957.126 636.032L965.032 632.075V629.7L967.404 626.535L972.147 624.161L974.519 618.621L976.1 613.872V609.124L977.681 606.75H981.634L985.587 605.959V603.584L981.634 601.21L981.019 601.034M970.566 655.816H975.31M882.811 554.518L886.764 560.058L888.345 564.015V570.346L889.927 573.511L893.089 574.777M882.811 554.518H879.649M882.811 554.518H882.021M879.649 554.518L878.068 561.64H876.487L871.743 560.058L866.209 556.101L861.465 552.144M879.649 554.518H882.021M847.882 546.604H839.329L831.423 554.518L825.917 560.058V564.015L831.423 568.763L834.586 570.346L837.748 577.468L843.282 583.008L848.816 582.217L853.56 586.174L857.512 590.922L856.722 594.088H848.816L840.91 595.67L836.167 598.836V602.002L824.308 609.915V616.247L825.917 620.204L829.842 624.161L833.004 625.743L836.167 628.118H847.235V636.823L848.816 640.78V643.945L844.863 647.111L840.91 649.485V653.442L843.282 658.982L844.863 660.565L848.816 662.939V670.062L856.722 677.976L853.56 685.89V691.429L856.722 696.969L857.512 704.883V710.423L860.675 717.545V720.711L855.141 722.294L860.675 727.833V741.287L855.141 738.122H844.863V727.833L840.91 738.122H834.586L829.842 734.165L825.917 727.833V722.294L829.842 717.545L824.308 714.38L821.936 710.423L819.564 704.883L818.774 707.257L819.564 710.423L822.727 715.171L823.517 718.337V721.502L821.146 725.459L817.983 729.416L811.659 732.582L806.124 735.747M806.124 735.747L800.59 737.33M806.124 735.747L803.753 736.426M800.59 737.33L794.266 738.122L787.941 741.287L784.779 744.453V747.618L780.035 751.575V761.863L782.407 766.612L784.779 773.734L782.407 780.066L778.454 781.648V787.98L770.548 791.145L767.386 795.102L764.224 801.433L761.852 803.807L760.271 801.433L757.108 800.642L755.527 798.268L753.946 797.476L755.527 804.599V806.973H750.784L746.04 808.556L739.715 807.764H736.553L731.019 804.599H724.694L721.532 807.764L718.37 811.721V815.678L716.788 818.053L715.207 824.384L710.464 829.132L706.511 834.672M800.59 737.33L803.753 736.426M706.511 834.672L702.558 838.629L697.814 845.751L693.071 852.083L683.584 861.579L678.05 864.745L674.887 867.911H671.725L667.772 871.867L661.448 875.824L659.076 879.781L654.332 885.321L650.379 887.695L648.008 892.444L641.683 898.775L637.73 901.149L631.405 904.315L619.546 908.272L613.222 912.229V932.014L611.641 934.388L606.107 937.553L600.572 939.928L594.248 942.302H570.53V951.007L568.158 954.964V958.921L562.624 963.669L559.462 965.252H557.09L554.719 962.087H547.603L542.069 965.252L538.116 970.792L533.373 977.914V980.289L529.42 986.62V1006.4L533.373 1015.11V1021.44L531.792 1025.4L533.373 1034.1L538.116 1045.18V1049.93M706.511 834.672L697.814 833.88L693.071 838.629H687.537V846.543H674.887L667.772 845.751L664.61 841.794L661.448 838.629L659.076 834.672H650.379L648.008 838.629V848.917H641.683V863.162H631.405V865.536L619.546 866.328V863.162H616.384V858.414H613.222L611.641 861.579V877.407L606.107 875.824L600.572 879.781H596.62L589.504 882.947V885.321L581.598 886.113M538.116 1049.93L533.373 1053.89L526.257 1052.31L523.095 1056.26L519.142 1061.01H501.749L497.796 1067.34L491.472 1068.92H481.985L477.241 1071.3L474.869 1077.63L471.707 1081.59L467.754 1082.38H463.801L459.848 1079.21M538.116 1049.93V1065.76L535.745 1073.67V1081.59L533.373 1086.34L531.792 1093.46L529.42 1095.83L526.257 1099.79L523.095 1102.16L519.142 1109.29H514.399V1114.83L517.561 1117.2V1130.65L514.399 1133.03L519.142 1136.99V1170.22L517.561 1171.81H504.912L501.749 1174.18L499.378 1177.35V1186.84L494.634 1188.43L489.891 1195.55L487.519 1200.3L489.891 1206.63L494.634 1208.21H504.912L506.493 1213.75L501.749 1211.38H485.147L477.241 1213.75L474.869 1216.12L469.335 1218.5H465.382L459.848 1225.62V1237.49L456.686 1242.24L450.361 1246.99L444.037 1250.95L440.084 1252.53L436.131 1254.9H426.644L420.319 1248.57M420.319 1248.57L417.947 1246.99L414.785 1243.82L412.413 1240.66L409.251 1235.91H406.879L404.507 1228L402.926 1225.62L397.392 1218.5L395.02 1216.12V1208.21L392.649 1202.67V1200.3H395.02L392.649 1188.43V1185.26L389.486 1182.09L387.115 1174.18L382.371 1166.27V1163.89L379.209 1155.19L375.256 1152.81L372.884 1145.69V1140.94L365.769 1129.07L363.397 1124.32L360.235 1117.2H357.863L352.329 1109.29L349.957 1103.75L346.004 1096.62L342.051 1090.29L339.68 1085.54L338.098 1079.21M420.319 1248.57L425.063 1242.24V1235.91L423.481 1231.95V1228L421.11 1222.46L424.272 1216.12L425.063 1211.38L430.597 1209L432.178 1202.67H426.644L425.063 1195.55V1177.35L423.481 1171.81H421.11L416.366 1174.18L412.413 1171.81L409.251 1166.27V1159.94L406.879 1152.81V1145.69L404.507 1140.94L398.973 1139.36L397.392 1133.03H392.649L389.486 1126.7L395.02 1122.74L392.649 1117.2M338.098 1079.21L335.727 1073.67H333.355V1061.01L331.774 1053.89V1047.56L329.402 1042.02V1039.64L323.868 1034.89V1023.02L319.124 1021.44V1014.32L316.753 1011.15L315.171 1008.78L312.009 1004.82L308.847 1003.24L307.947 1001.62M338.098 1079.21L344.423 1083.17L349.957 1086.34L353.119 1091.88L357.863 1095.83L363.397 1102.16L369.722 1105.33L372.884 1109.29L379.209 1111.66L384.743 1114.83H389.486L392.649 1117.2M296.988 973.166V978.706H300.15V981.08L302.522 987.411L304.894 990.577V996.117L307.947 1001.62M296.988 973.166L293.826 967.626L288.292 961.295V951.798L285.129 948.633L282.757 942.302V933.596L280.386 927.265V922.517L278.014 913.02V908.272L275.642 902.732V897.192L272.48 890.861V886.113L269.317 880.573V875.824L265.365 867.119V856.831L261.412 852.874V822.01L259.04 818.053L255.087 810.93V798.268M296.988 973.166L299.36 972.375L302.522 968.418H314.381M255.087 798.268L259.04 788.771L261.412 777.691L265.365 772.152L261.412 766.612L259.04 759.489L255.087 755.532V743.661L259.04 740.496L262.202 738.517M255.087 798.268H261.412L262.202 791.936L266.946 790.354L272.48 794.311H281.176V781.648H283.548V775.317L288.292 777.691H294.616L298.569 775.317V759.489L288.292 755.532L289.873 753.95H294.616L302.522 747.618L305.684 743.661L310.428 740.496M262.202 738.517L265.365 736.539M392.649 1117.2H398.973L404.507 1122.74H409.251L412.413 1117.2L417.947 1114.83H430.597L433.759 1110.87H440.874L441.665 1106.91V1102.16L433.759 1099.79V1095.83L436.131 1091.88V1083.17H440.874L443.246 1077.63L445.618 1075.26H450.361L455.105 1076.05L459.848 1079.21M459.848 1079.21L463.801 1075.26L469.335 1073.67V1067.34L474.869 1061.01V1058.64H467.754V1052.31L465.382 1047.56H459.848L456.686 1045.18L455.105 1042.02L453.524 1037.27H450.361L447.199 1036.48L443.246 1037.27L433.759 1042.02L430.597 1039.64L426.644 1036.48L425.063 1038.06L421.11 1042.81H416.366L414.785 1039.64V1034.89L412.413 1031.73L413.204 1028.84L416.366 1026.56L419.529 1026.98L420.204 1029.71L421.11 1031.73H426.644H429.806V1022.23L425.063 1020.65H419.529L413.204 1022.23L411.764 1026.56M411.623 1026.98L411.764 1026.56M435.34 865.536L436.131 868.702V882.947L435.34 885.321L433.759 892.444L438.503 896.401L436.131 898.775V901.149L430.597 904.315L429.806 908.272L430.597 912.229V925.682L429.806 934.388H426.644V939.928H429.806L435.34 942.302V949.424L433.759 954.964L429.806 956.547H421.11L419.529 958.13V970.001L416.366 974.749V980.289L419.529 984.246L421.11 989.785L416.366 992.16H406.879L407.67 996.908L410.042 1000.07L407.67 1003.24L406.089 1004.82V1009.57L407.67 1011.94L410.042 1016.69H411.623V1021.44L411.764 1026.56M435.34 865.536H430.597L429.806 863.162L428.225 861.579L425.063 863.162L421.11 868.702L416.366 871.867H411.623L410.042 875.824V882.947H406.089L403.717 889.278H393.439L391.068 896.401V902.732H387.115L379.999 901.149L376.837 902.732L372.094 901.149L366.559 898.775H364.188L361.816 904.315L364.188 908.272V916.977H350.748L348.376 921.725H344.423L341.261 919.351L336.517 921.725L334.936 927.265L328.611 928.848V934.388L323.868 932.805H319.124L315.171 934.388V939.928L319.124 945.467H323.868V954.964L320.706 958.13L314.381 968.418M435.34 865.536L436.131 859.997L440.084 858.414L443.246 855.248L445.618 852.083L449.571 848.917V846.543L445.618 841.794L443.246 838.629L447.99 829.132L449.571 827.549L454.314 829.132L457.477 829.924L461.43 827.549V823.592L463.801 818.844L465.382 814.887V806.182L471.707 807.764H481.194L484.357 811.721L486.728 816.47H491.472L493.053 814.887H499.378L500.168 817.261L505.702 818.844L509.655 820.427H515.189V816.47H519.142L520.723 818.844L523.095 822.01L524.676 826.758L523.095 827.549V838.629L524.676 842.586V848.917L528.629 852.083H533.373M314.381 968.418L315.171 972.375V996.117L314.381 996.908L311.218 997.699L307.947 1001.62M533.373 852.083L536.93 853.665M533.373 852.083L536.535 853.49M581.598 886.113L577.645 885.321H564.996L562.624 882.947L560.253 877.407L557.881 872.659H553.928L550.766 866.328V861.579L549.184 859.997L544.441 856.831L540.488 855.248L536.93 853.665M581.598 886.113V875.033L584.761 869.493L591.876 865.536L596.62 859.205L602.154 852.874L605.316 848.126V829.132L602.154 821.218V817.261L596.62 810.139L594.248 805.39V801.433L599.782 797.476L608.478 801.433L614.803 805.39L623.499 810.139L629.033 805.39L626.662 797.476H614.803V763.446H617.965L623.499 756.324H643.264C641.946 756.06 640.102 755.216 643.264 753.95C647.059 749.518 649.589 745.244 650.379 743.661L651.96 738.913L655.123 734.165L657.495 729.416V717.545L661.448 715.963L663.819 713.588L670.144 706.466L674.097 705.335M310.428 740.496H312.8M310.428 740.496H302.522L294.616 736.539L296.197 729.416L298.569 727.833L305.684 724.668H309.637M536.535 853.49V840.212L540.488 837.837V829.132L542.069 823.592H545.232L547.603 827.549H554.719V818.053L551.556 814.887L547.603 810.139L542.069 806.182V801.433L546.813 798.268V794.311H542.069V788.771H549.184V781.648L542.069 777.691L545.232 772.152V770.569L544.441 766.612L540.488 759.489L549.184 750.784L548.061 748.536M536.535 853.49L536.93 853.665M628.243 647.111V649.485L622.709 651.068H599.782L595.829 647.111H587.923L586.342 657.399V662.939H595.829L598.991 665.313L601.363 666.896L603.735 667.687L607.688 670.853V675.601L603.735 678.767L595.829 686.681H591.085V696.178L586.342 697.76L582.389 700.926L580.808 704.883H572.902L569.74 706.466L567.368 711.214V714.38L564.206 719.92H560.253L557.881 723.085V730.999L554.719 734.165V746.036L548.394 748.41L548.061 748.536M628.243 647.111H643.264L648.008 639.197L650.379 636.032M628.243 647.111V616.247L622.709 613.081L615.594 613.872H611.641L607.688 609.915L603.735 606.75L597.41 605.167L591.085 602.002L586.342 598.045L582.389 595.67H572.902L567.368 602.002L564.206 605.167H557.881L556.3 602.002L557.881 595.67H548.394L542.86 598.045H538.116V588.548H526.257L524.676 590.922L520.723 593.296L516.77 598.045H506.493L500.959 593.296H490.681L487.519 591.713V583.008H483.566L478.822 586.174L474.079 588.548V598.045L478.822 605.167V609.915L481.194 616.247H483.566L487.519 623.369V630.492H483.566C481.985 632.075 477.874 634.29 474.079 630.492C470.284 626.693 466.7 624.161 465.382 623.369L462.22 621.786V609.915L459.848 606.75V602.002H462.22L465.382 598.045V590.922L462.22 588.548V583.008L465.382 579.842H471.707L474.079 574.303H478.822L481.194 568.763L483.566 564.806L487.519 556.892V550.561L491.472 548.978V539.481L483.566 529.984L475.66 528.402H471.707L462.22 524.445L458.267 522.862M650.379 636.032H654.332L657.495 639.197V644.737L661.448 649.485L667.772 657.399V660.565H672.516V667.687L674.097 673.227L678.05 678.767L683.584 682.724H686.746V690.638L680.422 692.221L678.05 693.803L674.097 696.178V705.335M650.379 636.032L651.96 630.492L654.332 626.535L651.96 622.578V620.204H655.913L657.495 613.872L654.332 609.915L649.589 606.75L648.008 600.419V596.462L651.96 590.922L655.913 587.756L661.448 585.382L669.353 580.634L673.306 577.468L677.259 573.511H681.212L685.956 575.094L693.861 573.511L697.814 570.346L692.28 564.806L686.746 564.015L681.212 560.058L677.259 556.101L676.469 552.935L674.887 549.769H679.631V545.812L676.469 541.855L671.725 539.481L677.259 533.942H685.956V526.028L679.631 521.279L674.887 517.322L671.725 511.782L667.772 505.451L667.377 502.286M458.267 522.862L450.361 520.488H446.408L439.293 525.236L432.178 529.193L428.225 526.819L432.178 520.488L437.712 515.739L434.55 510.991V505.451L428.225 499.12V491.998L423.481 486.458M774.501 713.588L770.548 710.423L765.014 708.049L759.48 706.466L756.318 703.3L749.993 700.926L748.412 704.883V717.545L745.249 722.294L736.553 719.92L733.391 717.545H723.113C721.848 717.545 721.005 719.128 720.741 719.92H715.998L711.254 715.963L715.998 712.006V704.883H709.673L697.814 706.466L689.909 710.423L682.793 708.049L675.678 704.883L674.097 705.335M774.501 713.588L780.826 717.545L785.569 719.92L789.522 722.294L791.894 726.251L794.266 729.416H799.009L800.59 730.999L802.172 734.165L803.753 735.747V736.426M774.501 713.588L777.663 710.423V704.883L772.92 698.552L770.548 696.178L766.595 693.803L765.014 691.429L763.433 689.846V687.472L765.014 685.098V682.724H756.318L751.574 680.35L749.993 678.767L745.249 676.393V663.73L748.412 659.773H749.993L753.155 662.148H759.48L761.061 659.773L765.014 655.816H772.92L774.501 651.859L777.663 647.902L783.988 643.945L787.15 647.902L791.894 650.277L795.056 649.485V639.988H802.172L803.753 636.032H806.124L809.287 632.075V628.909L811.659 627.326V622.578L814.03 618.621H817.193V606.75L813.24 599.627V590.131M1031.44 1275.48L1031.32 1275.69M1031.32 1275.69L1028.28 1281.02L1026.7 1285.77L1028.28 1292.89V1298.43L1033.81 1300.8V1303.97H1036.98L1038.56 1300.8H1040.93V1292.89L1036.98 1288.93V1284.18L1035.39 1282.6L1033.81 1279.44L1031.32 1275.69ZM318.334 395.447L323.077 401.778L325.449 410.484V416.815L328.611 420.772H334.145V416.815L338.889 420.772L347.585 424.729H357.863V429.477L360.235 436.6L363.397 440.557V447.679L368.141 454.011L372.094 460.342L376.046 465.881L379.209 469.838V481.709L384.743 486.458L387.115 477.752L393.439 475.378V469.838L401.345 477.752L404.507 475.378L406.879 469.838L408.46 469.047L411.623 475.378V486.458L416.366 491.998L423.481 486.458M318.334 395.447L325.449 397.03L328.611 395.447H337.308L342.051 397.821L346.795 398.613L349.167 405.735L351.538 409.692L353.91 405.735L359.444 403.361H379.209L383.162 401.778L386.324 397.821V392.282L390.277 388.325H395.02L401.345 385.951L406.089 378.037L410.832 377.245L411.623 373.288L407.67 365.374L406.879 359.043L410.042 355.877M423.481 486.458L427.434 484.084H430.597L433.759 480.918L435.34 474.587V469.047L432.178 460.342L428.225 456.385V447.679C428.225 446.413 427.698 445.569 427.434 445.305L424.272 441.348L420.319 438.183C420.952 436.916 421.637 433.962 421.9 432.643V419.189L418.738 416.815M418.495 416.815V413.649L418.738 409.692L419.529 405.735L423.481 400.987L425.063 395.447L427.434 392.282L432.178 388.325C432.441 387.533 433.285 385.634 434.55 384.368L438.503 380.411V376.454L432.178 374.871H427.434L424.272 371.705L421.9 368.54L420.319 362.209L416.366 359.043L410.042 355.877M410.042 355.877L404.507 351.92V344.798L398.973 336.884H384.743V325.804L379.209 317.89V313.933L372.094 306.811H368.141V296.523H372.094L376.046 289.4L373.675 283.86H368.141L363.397 289.4H357.863L353.91 293.357M309.637 724.668H316.753L320.706 721.502V727.833L326.24 734.165L334.145 735.747L343.632 738.517L347.585 743.661H352.329L361.816 747.618H376.837L380.79 746.036L383.162 753.95L387.905 757.907L391.068 755.532H393.439L403.717 753.95L406.089 746.036L410.042 740.496L411.623 735.747L421.11 734.165H435.34L436.131 738.517L430.597 743.661L443.246 747.618H449.571L457.477 746.036L461.43 740.496L465.382 738.517H471.707L474.079 740.496H478.032L486.728 738.517L496.215 735.747L500.168 734.165H505.702L507.283 733.373L511.236 738.122H515.189L519.142 736.539L520.723 738.517L528.629 740.496V736.539H537.326L542.069 742.87L546.813 746.036L548.061 748.536M374.465 283.86V268.033C375.519 268.56 377.944 269.299 379.209 268.033C380.474 266.766 387.115 260.91 382.371 264.867C383.952 263.284 387.431 259.96 388.696 259.327L393.439 256.953L394.23 253.787H398.183C398.973 253.787 403.717 252.205 404.507 253.787C405.14 255.054 407.933 258.008 409.251 259.327C411.623 260.119 414.785 261.701 416.366 262.493M416.366 262.493C417.947 263.284 421.9 267.241 423.481 268.033C427.434 268.824 430.597 268.824 432.178 268.824C433.759 268.824 434.55 268.033 436.131 268.033C437.712 268.033 440.084 264.867 440.874 264.867C441.507 264.867 443.773 265.395 444.827 265.658L445.618 266.45C447.99 268.824 448.78 271.198 449.571 271.989C450.361 272.781 451.152 275.946 450.361 276.738C451.943 279.112 454.314 279.903 455.105 279.903C455.737 279.903 458.004 279.376 459.058 279.112L463.011 277.529L464.241 279.376M416.366 262.493V259.327L406.879 248.248L401.345 244.989H395.02L398.973 236.377L395.02 233.742L390.277 231.146L386.324 224.506H382.371V218.966L376.046 215.009H372.094L370.889 209.517V200H389.058L399.44 194.809L403.766 192.213H415.878V187.022L418.474 180.101H423.665L425.395 175.775V174.044L423.665 175.775L418.474 165.393L419.339 163.662H423.665L430.587 165.393L436.643 168.853H438.373M464.592 279.903L464.241 279.376M656.704 620.204H670.934L674.097 617.038L678.05 620.204L682.793 623.369L689.118 625.743L691.49 631.283H697.024L701.767 623.369L704.93 620.204L708.092 627.326H712.045L714.417 625.743L719.16 623.369H730.228L735.762 620.204V610.707H745.249L751.574 615.455L753.946 620.204L757.899 623.369L761.852 628.909H764.224L767.386 625.743V623.369L769.758 617.038L776.082 618.621H780.826C783.988 618.621 785.306 616.51 785.569 615.455V603.584L791.103 599.627L799.009 593.296L801.381 590.131H813.24M813.24 590.131V583.008L820.355 580.634L824.308 577.468L822.727 573.511L817.193 569.554L815.611 567.972L813.24 564.806V561.64L817.193 559.266L820.355 556.892L825.889 552.935L829.051 545.021M847.235 546.604L851.978 548.187H855.141V543.438H859.094L861.465 546.604V552.935M439.693 377.245L440.874 372.497L443.246 371.705L444.827 369.331L443.246 363V358.252L445.618 351.129L449.571 345.589L455.105 341.632L461.43 340.05L465.382 338.467L470.126 340.05L475.66 342.424L481.194 341.632M481.194 341.632L485.147 345.589H489.1V342.424L485.938 339.258M481.194 341.632L482.775 338.467L485.938 339.258M882.021 554.518L884.392 551.352H887.555V542.647L890.717 539.481V534.733L887.555 530.776V529.193M893.089 575.094V574.777M981.019 601.034L976.1 599.627L972.147 594.088H963.451C963.451 593.824 963.135 593.454 961.87 594.088C960.605 594.721 956.072 595.934 953.964 596.462H946.058L942.105 592.505H934.199L929.456 594.088H924.712L918.387 595.67H905.738L900.995 592.505H897.832L891.508 590.922L888.345 589.339L886.764 584.591L890.717 580.634V577.468L893.879 575.094L893.089 574.777M981.019 601.034L982.425 599.627C984.006 598.572 988.591 595.829 994.284 593.296C999.976 590.764 998.237 590.658 996.655 590.922V586.174H994.284L991.912 582.217L989.54 576.677L982.425 571.929C981.107 571.137 977.839 569.554 975.31 569.554V563.223C976.364 562.168 978.946 559.741 980.844 558.475C982.741 557.208 980.053 557.947 978.472 558.475H960.288L955.545 561.64L953.173 566.389H948.43L946.058 569.554H941.314L937.362 566.389L931.037 563.223H925.503L919.178 561.64H904.157C902.26 561.64 899.677 562.696 898.623 563.223L895.461 566.389L893.089 569.554V574.777M973.728 621.786L978.472 626.535L982.425 636.032M982.425 636.032L980.844 641.571V647.111L978.472 651.068L975.31 655.816M982.425 636.032L985.587 632.866L994.284 630.492L996.655 626.535L1002.19 624.952L1006.14 626.535M1006.14 626.535V620.995L1010.89 615.455V606.75L1014.05 602.793L1018 594.879L1019.58 593.296M1019.58 593.296L1022.74 586.965V583.008L1018 580.634L1019.58 574.303L1025.12 570.346L1028.28 566.389L1029.86 564.015L1034.6 566.389C1038.4 564.489 1043.04 557.156 1044.88 553.726L1048.83 547.395L1052 541.855L1058.32 537.898H1059.9L1063.06 534.733L1070.18 528.402L1076.5 524.445L1083.62 520.488H1087.57M1019.58 593.296H1028.28L1033.02 586.965V580.634L1036.18 578.26H1041.72L1048.83 580.634H1052L1055.95 578.26L1059.9 576.677H1063.06L1065.44 578.26V583.997M1065.44 584.591V583.997M1087.57 520.488V533.15M995.074 1076.05L999.027 1064.18V1054.68L1005.35 1045.97L1008.51 1049.93V1068.92L1005.35 1076.05V1114.03L995.074 1106.12V1130.65L984.006 1122.74L987.959 1114.03V1106.12L991.912 1099V1083.96L995.074 1076.05ZM984.006 1149.65H987.959L990.331 1156.77L991.912 1163.89H984.006V1149.65ZM976.1 1122.74V1127.49L978.472 1128.28L980.053 1127.49V1124.32L979.263 1122.74H976.1ZM1034.6 1099.79L1036.18 1102.16L1040.14 1099.79L1039.35 1096.62L1036.98 1095.04H1034.6V1099.79ZM1051.21 1051.51V1055.47L1052.79 1057.85H1055.16V1052.31L1052.79 1051.51H1051.21ZM995.074 1209.79V1217.71L997.446 1219.29H1002.19L1003.77 1216.12V1209.79H995.074ZM1003.77 1243.82V1249.36L1010.89 1251.74L1014.05 1249.36L1010.89 1243.82H1003.77ZM1026.7 1235.91L1031.44 1234.33V1243.82H1026.7V1235.91ZM1021.95 1249.36H1028.28V1262.82H1025.12V1264.4L1023.54 1265.98H1017.21L1015.63 1262.82V1255.69H1021.95V1249.36ZM266.946 1244.61V1251.74H271.689L274.852 1249.36V1246.99L271.689 1244.61H266.946ZM289.873 1179.72L291.454 1178.14V1176.55H296.197V1181.3L293.826 1182.89H289.873V1179.72ZM291.454 1150.44V1154.4L293.826 1155.98L295.407 1155.19V1150.44H291.454ZM255.878 1117.2V1122.74L257.459 1123.53L261.412 1122.74L260.621 1117.99L257.459 1116.41L255.878 1117.2ZM266.946 1125.11V1129.86L269.317 1131.45L270.899 1129.86V1125.91L266.946 1125.11ZM259.83 1132.24L259.04 1135.4L255.878 1140.15V1145.69L260.621 1146.48L262.993 1145.69V1133.82L260.621 1132.24H259.83ZM250.343 1152.81V1155.98L255.087 1156.77L253.922 1152.81H250.343ZM252.715 1160.73L253.922 1163.89H257.459L255.878 1160.73H252.715ZM236.113 1148.86L236.904 1156.77L240.856 1155.98L239.275 1148.86H236.113Z" stroke="black" stroke-width="1.2"/>
<path d="M284.977 500.555H288.422V546H283.242V509.32H280.312V505.969C281.977 505.805 283.125 505.266 283.781 504.328C284.414 503.414 284.812 502.148 284.977 500.555Z" fill="white"/>
<path d="M220.469 670.414V670.672C222.648 671.07 223.727 672.664 223.727 675.453V689.141C223.727 693.055 221.242 695.281 217.023 695.281C212.734 695.281 210.344 693.008 210.344 688.719V674.938H215.383V689.047C215.383 690.266 215.922 690.875 216.977 690.875C218.008 690.875 218.523 690.195 218.5 688.859V675.219C218.5 673.695 217.844 672.922 216.531 672.922H213.766L213.086 668.797H216.438C217.961 668.797 218.359 668.117 218.359 666.43V655.484C218.359 654.383 217.773 653.773 216.883 653.773C215.992 653.773 215.336 654.453 215.336 655.602V667.109H210.391V655.484C210.391 651.523 212.711 649.344 217.117 649.344C221.031 649.344 223.492 651.43 223.492 655.016V665.586C223.492 668.469 222.789 669.852 220.469 670.414Z" fill="white"/>
<path d="M503.469 944.414V944.672C505.648 945.07 506.727 946.664 506.727 949.453V963.141C506.727 967.055 504.242 969.281 500.023 969.281C495.734 969.281 493.344 967.008 493.344 962.719V948.938H498.383V963.047C498.383 964.266 498.922 964.875 499.977 964.875C501.008 964.875 501.523 964.195 501.5 962.859V949.219C501.5 947.695 500.844 946.922 499.531 946.922H496.766L496.086 942.797H499.438C500.961 942.797 501.359 942.117 501.359 940.43V929.484C501.359 928.383 500.773 927.773 499.883 927.773C498.992 927.773 498.336 928.453 498.336 929.602V941.109H493.391V929.484C493.391 925.523 495.711 923.344 500.117 923.344C504.031 923.344 506.492 925.43 506.492 929.016V939.586C506.492 942.469 505.789 943.852 503.469 944.414Z" fill="white"/>
</g>
<defs>
<filter id="filter0_d_226_1983" x="0" y="0" width="1279.6" height="1424.8" filterUnits="userSpaceOnUse" color-interpolation-filters="sRGB">
<feFlood flood-opacity="0" result="BackgroundImageFix"/>
<feColorMatrix in="SourceAlpha" type="matrix" values="0 0 0 0 0 0 0 0 0 0 0 0 0 0 0 0 0 0 127 0" result="hardAlpha"/>
<feOffset dx="16" dy="16"/>
<feComposite in2="hardAlpha" operator="out"/>
<feColorMatrix type="matrix" values="0 0 0 0 1 0 0 0 0 0.384314 0 0 0 0 0 0 0 0 1 0"/>
<feBlend mode="normal" in2="BackgroundImageFix" result="effect1_dropShadow_226_1983"/>
<feBlend mode="normal" in="SourceGraphic" in2="effect1_dropShadow_226_1983" result="shape"/>
</filter>
</defs>
</svg>
