<svg width="72" height="73" viewBox="0 0 72 73" fill="none" xmlns="http://www.w3.org/2000/svg">
<path opacity="0.4" d="M34.5 63.5C50.2401 63.5 63 50.7401 63 35C63 19.2599 50.2401 6.5 34.5 6.5C18.7599 6.5 6 19.2599 6 35C6 50.7401 18.7599 63.5 34.5 63.5Z" fill="#FF6200"/>
<path d="M63.9016 66.4987C63.3616 66.4987 62.8216 66.2887 62.4316 65.8987L56.8516 60.3187C56.0416 59.5087 56.0416 58.1887 56.8516 57.3487C57.6616 56.5387 58.9816 56.5387 59.8216 57.3487L65.4016 62.9287C66.2116 63.7387 66.2116 65.0587 65.4016 65.8987C64.9816 66.2887 64.4416 66.4987 63.9016 66.4987Z" fill="#FF6200"/>
</svg>
